<?xml version="1.0" encoding="UTF-8"?>
<svg id="Layer_1" data-name="Layer 1" xmlns="http://www.w3.org/2000/svg" viewBox="0 0 800.62 800.62">
  <defs>
    <style>
      .cls-1, .cls-2 {
        fill: #fff;
      }

      .cls-2 {
        stroke: #fff;
        stroke-miterlimit: 6.25;
        stroke-width: 1.56px;
      }
    </style>
  </defs>
  <g id="SVGRepo_iconCarrier" data-name="SVGRepo iconCarrier">
    <g>
      <path class="cls-2" d="m400.31.78C179.63.78.78,179.63.78,400.31s178.85,399.53,399.53,399.53,399.53-178.85,399.53-399.53S620.98.78,400.31.78Zm249.39,648.76c-32.46,32.46-70.07,57.9-112.05,75.54-43.39,18.42-89.58,27.62-137.34,27.62s-93.8-9.36-137.34-27.62c-41.98-17.79-79.75-43.23-112.05-75.54-32.46-32.46-57.9-70.07-75.54-112.05-18.42-43.39-27.78-89.58-27.78-137.18s9.36-93.8,27.62-137.34c17.79-41.98,43.23-79.75,75.54-112.05,32.62-32.46,70.23-57.9,112.21-75.69,43.54-18.26,89.74-27.62,137.34-27.62s93.8,9.36,137.34,27.62c41.98,17.79,79.75,43.23,112.05,75.54,32.46,32.46,57.9,70.07,75.54,112.05,18.42,43.39,27.62,89.58,27.62,137.34s-9.36,93.8-27.62,137.34c-17.79,41.98-43.23,79.75-75.54,112.05Z"/>
      <path class="cls-1" d="m206.55,402.21c0-35.93,8.85-69.08,26.55-99.46,17.7-30.38,41.74-54.42,72.12-72.12,30.38-17.7,63.53-26.55,99.46-26.55s69.08,8.85,99.46,26.55c30.38,17.7,54.42,41.74,72.12,72.12,17.7,30.38,26.55,63.53,26.55,99.46s-8.85,69.08-26.55,99.46c-17.7,30.38-41.74,54.42-72.12,72.12-30.38,17.7-63.53,26.55-99.46,26.55s-69.08-8.85-99.46-26.55c-30.38-17.7-54.42-41.74-72.12-72.12-17.7-30.38-26.55-63.53-26.55-99.46Zm32.89,0c0,41.21,13.87,77.53,41.61,108.97,12.68-24.83,32.76-48.47,60.23-70.93,27.47-22.45,54.29-36.59,80.44-42.4-3.96-9.25-7.79-17.57-11.49-24.96-45.44,14.53-94.57,21.79-147.4,21.79-10.3,0-17.96-.13-22.98-.4,0,1.06-.07,2.38-.2,3.96-.13,1.58-.2,2.91-.2,3.96Zm5.15-40.81c5.81.53,14.4.79,25.76.79,44.12,0,85.99-5.94,125.61-17.83-20.08-35.66-42.13-65.38-66.17-89.16-20.87,10.57-38.77,25.23-53.69,43.98-14.93,18.76-25.43,39.49-31.5,62.21Zm59.04,171.18c29.85,23.25,63.53,34.87,101.04,34.87,19.55,0,38.96-3.7,58.25-11.09-5.28-45.17-15.59-88.89-30.91-131.16-24.3,5.28-48.8,18.62-73.5,40.02-24.7,21.4-42.99,43.85-54.88,67.36Zm60.63-290.05c23.25,24.04,44.78,54.02,64.59,89.95,35.93-15.06,63-34.21,81.23-57.46-30.64-25.36-65.78-38.04-105.4-38.04-13.47,0-26.94,1.85-40.42,5.55Zm78.85,118.08c3.96,8.45,8.45,19.15,13.47,32.1,19.55-1.85,40.81-2.77,63.8-2.77,16.38,0,32.62.4,48.74,1.19-2.11-35.93-15.06-67.89-38.83-95.89-17.17,25.62-46.23,47.42-87.17,65.38Zm23.38,59.83c13.47,39.1,22.59,79.25,27.34,120.46,20.87-13.47,37.91-30.78,51.12-51.91,13.21-21.13,21.13-43.98,23.77-68.55-19.28-1.32-36.85-1.98-52.7-1.98-14.53,0-31.04.66-49.53,1.98Z"/>
    </g>
  </g>
</svg>