<?xml version="1.0" encoding="utf-8"?>
<!-- Generator: Adobe Illustrator 27.1.1, SVG Export Plug-In . SVG Version: 6.00 Build 0)  -->
<svg version="1.1" id="Layer_1" xmlns="http://www.w3.org/2000/svg" xmlns:xlink="http://www.w3.org/1999/xlink" x="0px" y="0px"
	 viewBox="0 0 800 800" style="enable-background:new 0 0 800 800;" xml:space="preserve">
<style type="text/css">
	.st0{fill:#FFFFFF;stroke:#FFFFFF;stroke-width:1.5625;stroke-miterlimit:6.25;}
</style>
<g id="SVGRepo_bgCarrier">
</g>
<g id="SVGRepo_tracerCarrier">
</g>
<g id="SVGRepo_iconCarrier">
	<g>
		<path class="st0" d="M400,0C179.1,0,0,179.1,0,400s179.1,400,400,400s400-179.1,400-400S620.9,0,400,0z M649.7,649.5
			c-32.5,32.5-70.2,58-112.2,75.6c-43.4,18.4-89.7,27.7-137.5,27.7c-47.7,0-93.9-9.4-137.5-27.7c-42-17.8-79.8-43.3-112.2-75.6
			c-32.5-32.5-58-70.2-75.6-112.2C56.2,493.9,46.9,447.7,46.9,400s9.4-93.9,27.7-137.5c17.8-42,43.3-79.8,75.6-112.2
			c32.7-32.5,70.3-58,112.3-75.8c43.6-18.3,89.8-27.7,137.5-27.7s93.9,9.4,137.5,27.7c42,17.8,79.8,43.3,112.2,75.6
			c32.5,32.5,58,70.2,75.6,112.2C743.7,305.8,753,352,753,399.8c0,47.7-9.4,93.9-27.7,137.5C707.5,579.4,682,617.2,649.7,649.5z"/>
	</g>
	<g>
		<path class="st0" d="M211.1,304.3h81v260.4h-81V304.3z M251.7,174.9c25.9,0,46.9,21,46.9,46.9s-21,47-46.9,47
			c-26,0-46.9-21-46.9-47C204.7,195.9,225.7,174.9,251.7,174.9 M342.9,564.7h80.8V435.9c0-34,6.4-66.9,48.5-66.9
			c41.5,0,42.1,38.9,42.1,69.1v126.6h80.8V421.9c0-70.1-15.1-124-97-124c-39.4,0-65.8,21.6-76.6,42.1h-1.1v-35.6h-77.6L342.9,564.7
			L342.9,564.7z"/>
	</g>
</g>
</svg>
