<?xml version="1.0" encoding="utf-8"?>
<!-- Generator: Adobe Illustrator 27.1.1, SVG Export Plug-In . SVG Version: 6.00 Build 0)  -->
<svg version="1.1" id="Layer_1" xmlns="http://www.w3.org/2000/svg" xmlns:xlink="http://www.w3.org/1999/xlink" x="0px" y="0px"
	 viewBox="0 0 595.3 70.9" style="enable-background:new 0 0 595.3 70.9;" xml:space="preserve">
<style type="text/css">
	.st0{fill:#FFFFFF;}
	.st1{fill:#F8F3F4;stroke:#FFFFFF;stroke-width:10;stroke-miterlimit:10;}
</style>
<path class="st0" d="M297.8,3.2l7.8,15.8c0.5,1.1,1.6,1.9,2.8,2l17.5,2.5c3.1,0.4,4.3,4.2,2.1,6.4l-12.6,12.3
	c-0.9,0.9-1.3,2.1-1.1,3.3l3,17.4c0.5,3-2.7,5.4-5.4,3.9l-15.6-8.2c-1.1-0.6-2.4-0.6-3.5,0L277.1,67c-2.7,1.4-5.9-0.9-5.4-3.9
	l3-17.4c0.2-1.2-0.2-2.4-1.1-3.3L261,30c-2.2-2.2-1-5.9,2.1-6.4l17.5-2.5c1.2-0.2,2.3-0.9,2.8-2l7.8-15.8
	C292.5,0.5,296.4,0.5,297.8,3.2z"/>
<line class="st1" x1="588.5" y1="40.2" x2="336.4" y2="40.6"/>
<line class="st1" x1="259.8" y1="40.2" x2="7.7" y2="40.6"/>
</svg>
