<?xml version="1.0" encoding="UTF-8"?>
<svg id="Layer_1" data-name="Layer 1" xmlns="http://www.w3.org/2000/svg" viewBox="0 0 595.28 70.89">
  <defs>
    <style>
      .cls-1 {
        fill: #fff;
      }

      .cls-2 {
        fill: #f8f3f4;
        stroke: #fff;
        stroke-miterlimit: 10;
        stroke-width: 10px;
      }
    </style>
  </defs>
  <path class="cls-1" d="m297.8,3.23l7.81,15.83c.54,1.1,1.59,1.86,2.81,2.04l17.47,2.54c3.06.45,4.28,4.2,2.07,6.36l-12.64,12.32c-.88.86-1.28,2.09-1.07,3.3l2.98,17.4c.52,3.05-2.68,5.37-5.41,3.93l-15.63-8.21c-1.09-.57-2.39-.57-3.47,0l-15.63,8.21c-2.74,1.44-5.94-.89-5.41-3.93l2.98-17.4c.21-1.21-.19-2.44-1.07-3.3l-12.64-12.32c-2.21-2.16-.99-5.92,2.07-6.36l17.47-2.54c1.22-.18,2.27-.94,2.81-2.04l7.81-15.83c1.37-2.77,5.32-2.77,6.69,0Z"/>
  <line class="cls-2" x1="588.54" y1="40.24" x2="336.45" y2="40.61"/>
  <line class="cls-2" x1="259.83" y1="40.24" x2="7.73" y2="40.61"/>
</svg>